<svg id="visual" viewBox="0 0 1600 500" width="1600" height="500" xmlns="http://www.w3.org/2000/svg" xmlns:xlink="http://www.w3.org/1999/xlink" version="1.1"><g fill="#bbb"><circle r="16" cx="1038" cy="491"></circle><circle r="4" cx="349" cy="456"></circle><circle r="7" cx="1581" cy="293"></circle><circle r="7" cx="642" cy="368"></circle><circle r="10" cx="440" cy="43"></circle><circle r="3" cx="243" cy="493"></circle><circle r="14" cx="937" cy="478"></circle><circle r="4" cx="905" cy="27"></circle><circle r="3" cx="1053" cy="283"></circle><circle r="9" cx="309" cy="358"></circle><circle r="8" cx="1002" cy="118"></circle><circle r="7" cx="712" cy="451"></circle><circle r="5" cx="73" cy="220"></circle><circle r="7" cx="1235" cy="73"></circle><circle r="7" cx="874" cy="219"></circle><circle r="14" cx="1512" cy="348"></circle><circle r="7" cx="807" cy="404"></circle><circle r="10" cx="1530" cy="291"></circle><circle r="5" cx="1019" cy="452"></circle><circle r="13" cx="789" cy="67"></circle><circle r="3" cx="682" cy="304"></circle><circle r="13" cx="36" cy="156"></circle></g></svg>