<svg id="visual" viewBox="0 0 1600 500" width="1600" height="500" xmlns="http://www.w3.org/2000/svg" xmlns:xlink="http://www.w3.org/1999/xlink" version="1.1"><g fill="#ccc"><circle r="16" cx="771" cy="477"></circle><circle r="15" cx="863" cy="120"></circle><circle r="14" cx="1145" cy="218"></circle><circle r="14" cx="1282" cy="42"></circle><circle r="14" cx="1311" cy="332"></circle><circle r="14" cx="121" cy="174"></circle><circle r="14" cx="1070" cy="485"></circle><circle r="14" cx="713" cy="25"></circle><circle r="14" cx="806" cy="387"></circle><circle r="14" cx="342" cy="42"></circle><circle r="14" cx="1561" cy="470"></circle><circle r="14" cx="1118" cy="21"></circle><circle r="14" cx="186" cy="55"></circle><circle r="14" cx="1498" cy="203"></circle><circle r="14" cx="1168" cy="414"></circle><circle r="14" cx="941" cy="358"></circle><circle r="14" cx="1373" cy="4"></circle><circle r="14" cx="716" cy="338"></circle><circle r="14" cx="1588" cy="270"></circle><circle r="14" cx="443" cy="105"></circle><circle r="14" cx="507" cy="413"></circle><circle r="14" cx="779" cy="74"></circle></g></svg>