<?xml version="1.0" encoding="utf-8"?>
<!-- Generator: Adobe Illustrator 25.2.2, SVG Export Plug-In . SVG Version: 6.00 Build 0)  -->
<svg version="1.1" id="Layer_1" xmlns="http://www.w3.org/2000/svg" xmlns:xlink="http://www.w3.org/1999/xlink" x="0px" y="0px"
	 viewBox="0 0 500 250" style="enable-background:new 0 0 500 250;" xml:space="preserve">
<g>
	<path d="M249.77,196.44c-4.03,0.04-7.04-1.9-9.8-4.66c-29.33-29.39-58.7-58.74-88.06-88.09c-10.05-10.05-20.14-20.06-30.13-30.17
		c-5.02-5.08-5.12-12.26-0.44-17.07c4.78-4.92,12.07-4.83,17.35,0.2c0.54,0.52,1.06,1.05,1.59,1.58
		c35.53,35.53,71.09,71.03,106.53,106.65c2.36,2.38,3.43,2.21,5.68-0.05c35.72-35.87,71.55-71.63,107.3-107.46
		c3.42-3.42,7.24-5.32,12.07-4.28c8.86,1.91,12.38,12.43,6.57,19.41c-0.64,0.76-1.36,1.46-2.06,2.17
		c-38.97,38.97-77.94,77.93-116.89,116.92C256.76,194.32,253.81,196.41,249.77,196.44z"/>
</g>
</svg>
